<?xml version="1.0"?>
<svg version="1.1" xmlns="http://www.w3.org/2000/svg" xmlns:xlink="http://www.w3.org/1999/xlink" width="480" height="480">
    <desc iVinci="yes" version="4.6" gridStep="20" showGrid="no" snapToGrid="no" codePlatform="0"/>
    <g id="Layer1" name="Layer 1" opacity="1">
        <g id="Shape1">
            <desc shapeID="1" type="0" basicInfo-basicType="1" basicInfo-roundedRectRadius="12" basicInfo-polygonSides="6" basicInfo-starPoints="5" bounding="rect(-163.5,-204.5,327,409)" text="" font-familyName="Helvetica" font-pixelSize="256" font-bold="1" font-underline="0" font-alignment="1" strokeStyle="0" markerStart="0" markerEnd="0" shadowEnabled="0" shadowOffsetX="0" shadowOffsetY="2" shadowBlur="4" shadowOpacity="160" blurEnabled="0" blurRadius="4" transform="matrix(1.46789,0,0,1.17359,240,240)" pers-center="0,0" pers-size="0,0" pers-start="0,0" pers-end="0,0" locked="0" mesh="" flag=""/>
            <path id="shapePath1" d="M-1.52588e-05,-1.52588e-05 L480,-1.52588e-05 L480,480 L-1.52588e-05,480 L-1.52588e-05,-1.52588e-05 Z" style="stroke:none;fill-rule:evenodd;fill:#000000;fill-opacity:1;"/>
        </g>
        <g id="Shape2">
            <desc shapeID="2" type="2" basicInfo-basicType="0" basicInfo-roundedRectRadius="12" basicInfo-polygonSides="6" basicInfo-starPoints="5" bounding="rect(-240,-240,480,480)" text="R" font-familyName="Helvetica" font-pixelSize="256" font-bold="1" font-underline="0" font-alignment="1" strokeStyle="0" markerStart="0" markerEnd="0" shadowEnabled="0" shadowOffsetX="0" shadowOffsetY="2" shadowBlur="4" shadowOpacity="160" blurEnabled="0" blurRadius="4" transform="matrix(1,0,0,1,240,240)" pers-center="0,0" pers-size="0,0" pers-start="0,0" pers-end="0,0" locked="0" mesh="" flag=""/>
            <path id="shapePath2" d="M205.563,156.875 L205.563,206.375 L249.188,206.375 C257.854,206.375 264.354,205.375 268.688,203.375 C276.354,199.875 280.188,192.958 280.188,182.625 C280.188,171.458 276.479,163.958 269.062,160.125 C264.896,157.958 258.646,156.875 250.313,156.875 L205.563,156.875 M288.125,129.625 C295.083,132.542 300.979,136.833 305.812,142.5 C309.812,147.167 312.979,152.333 315.312,158 C317.646,163.667 318.812,170.125 318.812,177.375 C318.812,186.125 316.604,194.729 312.188,203.188 C307.771,211.646 300.479,217.625 290.312,221.125 C298.812,224.542 304.833,229.396 308.375,235.688 C311.917,241.979 313.688,251.583 313.688,264.5 L313.688,276.875 C313.688,285.292 314.021,291 314.688,294 C315.688,298.75 318.021,302.25 321.688,304.5 L321.688,309.125 L279.312,309.125 C278.146,305.042 277.312,301.75 276.812,299.25 C275.812,294.083 275.271,288.792 275.188,283.375 L274.938,266.25 C274.771,254.5 272.625,246.667 268.5,242.75 C264.375,238.833 256.646,236.875 245.313,236.875 L205.563,236.875 L205.563,309.125 L167.938,309.125 L167.938,124.875 L258.312,124.875 C271.229,125.125 281.167,126.708 288.125,129.625 Z" style="stroke:none;fill-rule:nonzero;fill:#ffffff;fill-opacity:1;"/>
        </g>
    </g>
</svg>
